<svg clip-rule="evenodd" fill-rule="evenodd" stroke-linejoin="round" stroke-miterlimit="1.41421" viewBox="0 0 1404 252" xmlns="http://www.w3.org/2000/svg"><g fill-rule="nonzero"><path d="m36 252v-36h-36v-36h72v36h108v-72h-144v-36h-36v-72h36v-36h180v36h36v36h-72v-36h-108v72h144v36h36v72h-36v36z"/><path d="m396 252v-216h-72v-36h216v36h-72v216z"/><path d="m576 252v-180h36v-36h36v-36h108v36h36v36h36v180h-72v-72h-108v72zm72-108h108v-72h-36v-36h-36v36h-36z"/><path d="m864 252v-252h216v36h36v108h-72v36h36v36h36v36h-108v-36h-36v-36h-36v72zm72-108h72v-36h36v-72h-108z"/><path d="m1260 252v-216h-72v-36h216v36h-72v216z"/></g></svg>